<svg xmlns="http://www.w3.org/2000/svg" width="322" height="41" fill="none" viewBox="0 0 322 41"><path fill="#9BDD55" d="M26.208 30.496C27.232 30.528 27.744 31.104 27.744 32.224C27.744 32.928 27.52 33.696 27.072 34.528C26.624 35.36 26.048 36.064 25.344 36.64C24.672 37.184 23.984 37.44 23.28 37.408C20.208 37.216 17.968 37.12 16.56 37.12C13.616 37.12 11.072 37.456 8.928 38.128C8.704 38.224 8.464 38.32 8.208 38.416C7.984 38.512 7.744 38.608 7.488 38.704C5.888 39.472 4.64 39.856 3.744 39.856C3.136 39.856 2.624 39.728 2.208 39.472C1.248 38.96 0.768 38.032 0.768 36.688C0.768 35.792 0.976 34.864 1.392 33.904C1.808 32.976 2.304 32.08 2.88 31.216C3.488 30.352 4.288 29.264 5.28 27.952C6.336 26.576 6.928 25.792 7.056 25.6C8.08 24.064 8.88 22.912 9.456 22.144L7.584 22.576C7.456 22.608 7.28 22.624 7.056 22.624C6.704 22.624 6.432 22.512 6.24 22.288C6.08 22.064 6 21.76 6 21.376C6 20.416 6.368 19.328 7.104 18.112C7.872 16.864 8.64 16.144 9.408 15.952L14.352 14.8L20.496 5.392C19.024 5.52 17.92 5.632 17.184 5.728C12.416 6.144 8.08 6.592 4.176 7.072C3.696 7.104 3.456 6.8 3.456 6.16C3.456 5.552 3.648 4.8 4.032 3.904C4.448 2.976 4.944 2.16 5.52 1.456C6.128 0.751998 6.72 0.367998 7.296 0.303999C10.304 0.0479984 12.928 -0.192002 15.168 -0.416003C17.44 -0.640002 19.328 -0.832002 20.832 -0.992002L25.92 -1.52H26.016C26.24 -1.52 26.4 -1.44 26.496 -1.28C27.104 -1.28 27.616 -1.056 28.032 -0.608001C28.448 -0.192002 28.656 0.351997 28.656 1.024C28.656 1.792 28.384 2.592 27.84 3.424L27.264 4.336C24.736 8.304 22.672 11.472 21.072 13.84C21.552 13.84 21.92 13.824 22.176 13.792C22.368 13.792 22.592 13.792 22.848 13.792C23.136 13.76 23.456 13.76 23.808 13.792C24.48 13.792 24.816 14.208 24.816 15.04C24.816 15.712 24.592 16.496 24.144 17.392C23.728 18.288 23.2 19.056 22.56 19.696C21.92 20.304 21.312 20.608 20.736 20.608C19.488 20.576 18.08 20.64 16.512 20.8C14.56 23.776 12.08 27.36 9.072 31.552C11.376 30.816 13.376 30.352 15.072 30.16C16.064 30.064 17.072 30.016 18.096 30.016C19.824 30.016 21.856 30.128 24.192 30.352L26.208 30.496ZM50.3321 33.232C50.8121 33.392 51.0521 33.68 51.0521 34.096C51.0521 34.608 50.7481 35.168 50.1401 35.776C49.4681 36.448 48.6041 36.784 47.5481 36.784C47.0361 36.784 46.6041 36.72 46.2521 36.592C44.5561 36.048 43.0201 35.776 41.6441 35.776C39.2441 35.776 36.7961 36.544 34.3001 38.08C33.8841 38.368 33.3721 38.608 32.7641 38.8C32.1881 38.96 31.6441 39.04 31.1321 39.04C30.6521 39.04 30.2681 38.96 29.9801 38.8C29.6921 38.608 29.5481 38.32 29.5481 37.936C29.5481 37.712 29.5801 37.52 29.6441 37.36C30.5721 34.768 31.3081 32.432 31.8521 30.352C32.4281 28.272 32.8121 26.16 33.0041 24.016C33.2921 21.136 33.4361 19.024 33.4361 17.68C33.4361 14.128 32.7481 11.408 31.3721 9.52C31.2121 9.328 31.1321 9.072 31.1321 8.752C31.1321 8.112 31.5801 7.52 32.4761 6.976C33.3721 6.4 34.2521 6.112 35.1161 6.112C35.6921 6.112 36.1081 6.24 36.3641 6.496C36.7801 6.656 37.0521 6.912 37.1801 7.264C37.9801 9.376 39.0841 11.168 40.4921 12.64C41.9001 14.08 43.5641 14.8 45.4841 14.8C45.8361 14.8 46.3641 14.736 47.0681 14.608C47.5161 14.544 47.8041 14.512 47.9321 14.512C48.4761 14.512 48.8761 14.64 49.1321 14.896C49.4201 15.12 49.5641 15.44 49.5641 15.856C49.5641 16.304 49.3721 16.752 48.9881 17.2C48.6361 17.648 48.1561 17.968 47.5481 18.16C46.2361 18.608 44.9241 18.832 43.6121 18.832C42.0441 18.832 40.5401 18.512 39.1001 17.872C39.0361 19.664 38.9561 21.008 38.8601 21.904L38.5241 24.928C39.7721 24.704 41.0201 24.512 42.2681 24.352L42.9401 24.304C44.2201 24.304 44.8601 24.736 44.8601 25.6C44.8601 26.176 44.5401 26.688 43.9001 27.136C43.2601 27.584 42.6041 27.872 41.9321 28C40.9401 28.192 39.5801 28.4 37.8521 28.624C37.5001 30.192 37.1161 31.664 36.7001 33.04C38.8121 32.272 40.9561 31.888 43.1321 31.888C45.5321 31.888 47.9321 32.336 50.3321 33.232ZM73.3946 33.232C73.8746 33.392 74.1146 33.68 74.1146 34.096C74.1146 34.608 73.8106 35.168 73.2026 35.776C72.5306 36.448 71.6666 36.784 70.6106 36.784C70.0986 36.784 69.6666 36.72 69.3146 36.592C67.6186 36.048 66.0826 35.776 64.7066 35.776C62.3066 35.776 59.8586 36.544 57.3626 38.08C56.9466 38.368 56.4346 38.608 55.8266 38.8C55.2506 38.96 54.7066 39.04 54.1946 39.04C53.7146 39.04 53.3306 38.96 53.0426 38.8C52.7546 38.608 52.6106 38.32 52.6106 37.936C52.6106 37.712 52.6426 37.52 52.7066 37.36C53.6346 34.768 54.3706 32.432 54.9146 30.352C55.4906 28.272 55.8746 26.16 56.0666 24.016C56.3546 21.136 56.4986 19.024 56.4986 17.68C56.4986 14.128 55.8106 11.408 54.4346 9.52C54.2746 9.328 54.1946 9.072 54.1946 8.752C54.1946 8.112 54.6426 7.52 55.5386 6.976C56.4346 6.4 57.3146 6.112 58.1786 6.112C58.7546 6.112 59.1706 6.24 59.4266 6.496C59.8426 6.656 60.1146 6.912 60.2426 7.264C61.0426 9.376 62.1466 11.168 63.5546 12.64C64.9626 14.08 66.6266 14.8 68.5466 14.8C68.8986 14.8 69.4266 14.736 70.1306 14.608C70.5786 14.544 70.8666 14.512 70.9946 14.512C71.5386 14.512 71.9386 14.64 72.1946 14.896C72.4826 15.12 72.6266 15.44 72.6266 15.856C72.6266 16.304 72.4346 16.752 72.0506 17.2C71.6986 17.648 71.2186 17.968 70.6106 18.16C69.2986 18.608 67.9866 18.832 66.6746 18.832C65.1066 18.832 63.6026 18.512 62.1626 17.872C62.0986 19.664 62.0186 21.008 61.9226 21.904L61.5866 24.928C62.8346 24.704 64.0826 24.512 65.3306 24.352L66.0026 24.304C67.2826 24.304 67.9226 24.736 67.9226 25.6C67.9226 26.176 67.6026 26.688 66.9626 27.136C66.3226 27.584 65.6666 27.872 64.9946 28C64.0026 28.192 62.6426 28.4 60.9146 28.624C60.5626 30.192 60.1786 31.664 59.7626 33.04C61.8746 32.272 64.0186 31.888 66.1946 31.888C68.5946 31.888 70.9946 32.336 73.3946 33.232ZM79.7531 5.056C79.2091 5.12 78.7131 5.04 78.2651 4.816C77.8171 4.56 77.5931 4.208 77.5931 3.76C77.5931 3.568 77.6411 3.36 77.7371 3.136C78.4731 1.664 78.8411 0.207999 78.8411 -1.232C78.8411 -1.68 79.2251 -2.16 79.9931 -2.672C80.6331 -3.152 81.4331 -3.52 82.3931 -3.776C82.7451 -3.872 83.1451 -3.92 83.5931 -3.92C84.7131 -3.92 85.2891 -3.52 85.3211 -2.72C85.3531 -1.76 85.2411 -0.784001 84.9851 0.207997C84.7611 1.2 84.4091 2.064 83.9291 2.8C83.4811 3.472 82.8891 4 82.1531 4.384C81.4171 4.768 80.6171 4.992 79.7531 5.056ZM105.407 17.344C104.799 16.832 103.743 16.16 102.239 15.328C100.767 14.464 99.6305 14.032 98.8305 14.032C98.1905 14.032 97.8705 14.352 97.8705 14.992C97.8705 15.216 97.9505 15.6 98.1105 16.144C98.3345 16.88 98.8305 17.584 99.5985 18.256C100.367 18.896 101.375 19.648 102.623 20.512C103.647 21.216 104.303 21.696 104.591 21.952C105.999 23.168 107.119 24.192 107.951 25.024C108.783 25.824 109.535 26.784 110.207 27.904C110.911 28.992 111.263 30.112 111.263 31.264C111.263 32.032 111.071 32.832 110.687 33.664C109.951 35.168 108.735 36.32 107.039 37.12C105.375 37.92 103.599 38.32 101.711 38.32C101.071 38.32 100.431 38.272 99.7905 38.176C95.4385 37.44 91.4225 34.544 87.7425 29.488C87.5505 29.2 87.4545 28.912 87.4545 28.624C87.4545 27.92 87.9185 27.28 88.8465 26.704C89.8065 26.096 90.7505 25.792 91.6785 25.792C92.3825 25.792 92.8945 26 93.2145 26.416C95.1985 29.104 97.1505 31.072 99.0705 32.32C100.831 33.472 102.319 34.048 103.535 34.048C104.527 34.048 105.023 33.616 105.023 32.752C105.023 32.144 104.783 31.392 104.303 30.496C103.823 29.632 103.199 28.816 102.431 28.048C101.663 27.28 100.687 26.4 99.5025 25.408L98.2065 24.304C98.0785 24.176 97.4865 23.712 96.4305 22.912C95.5665 22.272 94.8305 21.68 94.2225 21.136C93.6145 20.592 93.1025 20 92.6865 19.36C92.1425 18.496 91.8705 17.6 91.8705 16.672C91.8705 15.232 92.4785 13.92 93.6945 12.736C94.9425 11.52 96.3665 10.688 97.9665 10.24C98.9905 9.952 99.9665 9.808 100.895 9.808C102.623 9.808 104.287 10.208 105.887 11.008C107.519 11.808 109.167 12.912 110.831 14.32C111.119 14.544 111.263 14.816 111.263 15.136C111.263 15.744 110.767 16.336 109.775 16.912C108.783 17.488 107.807 17.776 106.847 17.776C106.207 17.776 105.727 17.632 105.407 17.344ZM151.234 -2.432C152.547 -2.528 153.203 -2.048 153.203 -0.992002C153.203 -0.448001 153.027 0.175999 152.675 0.879997C152.355 1.552 151.987 2.144 151.571 2.656C151.155 3.168 150.755 3.52 150.371 3.712C150.019 3.872 149.619 3.952 149.171 3.952L147.827 3.904C147.379 3.904 147.027 3.936 146.771 4C145.203 4.32 143.539 4.736 141.779 5.248C141.747 5.248 141.395 5.328 140.723 5.488C140.595 5.52 140.275 5.6 139.763 5.728C139.283 5.824 138.851 5.936 138.467 6.064C138.115 6.192 137.859 6.352 137.699 6.544C137.379 6.864 137.219 7.36 137.219 8.032C137.219 8.672 137.347 9.44 137.603 10.336C137.891 11.2 138.051 11.712 138.083 11.872C138.435 12.864 138.627 13.568 138.659 13.984C139.939 13.536 141.459 13.088 143.219 12.64C144.979 12.16 146.531 11.92 147.875 11.92C149.763 11.92 150.707 12.48 150.707 13.6C150.707 14.112 150.499 14.768 150.083 15.568C149.635 16.336 149.107 16.912 148.499 17.296C147.891 17.68 147.267 17.936 146.627 18.064C145.987 18.16 145.123 18.256 144.035 18.352C143.843 18.352 143.555 18.368 143.171 18.4C142.819 18.432 142.515 18.464 142.259 18.496C142.099 18.528 141.747 18.576 141.203 18.64C140.659 18.672 140.195 18.768 139.811 18.928C139.331 19.12 139.027 19.264 138.898 19.36C138.803 19.424 138.755 19.568 138.755 19.792C138.755 19.984 138.739 20.272 138.707 20.656C138.643 21.552 138.483 22.896 138.227 24.688L138.083 25.696C137.763 27.872 137.427 29.76 137.075 31.36C136.723 32.96 136.227 34.496 135.587 35.968C135.139 36.928 134.499 37.936 133.667 38.992C132.867 40.048 132.067 40.576 131.267 40.576C131.043 40.576 130.835 40.528 130.643 40.432C130.067 40.144 129.779 39.264 129.779 37.792C129.779 36.832 129.939 35.36 130.259 33.376L130.403 32.272L131.171 25.12C131.363 23.712 131.491 22.656 131.555 21.952L130.739 22.432C129.267 23.392 128.211 23.872 127.571 23.872C127.315 23.872 127.107 23.808 126.947 23.68C126.627 23.392 126.466 23.056 126.466 22.672C126.466 22 126.819 21.264 127.523 20.464C128.227 19.664 128.915 19.024 129.587 18.544C129.875 18.32 130.195 18.128 130.547 17.968C131.155 17.584 131.587 17.232 131.843 16.912C132.131 16.56 132.275 16.016 132.275 15.28C132.275 14.736 132.163 14.128 131.939 13.456C131.779 13.008 131.539 12.576 131.219 12.16C130.899 11.712 130.707 11.44 130.643 11.344C130.195 10.704 129.859 10.192 129.635 9.808C129.411 9.392 129.299 8.944 129.299 8.464C129.299 8.08 129.395 7.648 129.587 7.168C130.035 6.144 130.787 5.28 131.843 4.576C132.931 3.872 134.323 3.152 136.019 2.416L137.315 1.84C139.907 0.623998 142.323 -0.352003 144.563 -1.088C146.835 -1.856 149.059 -2.304 151.234 -2.432ZM164.569 28.048C165.305 26.32 165.673 24.544 165.673 22.72C165.673 21.28 165.417 19.968 164.905 18.784C164.425 17.568 163.657 16.576 162.601 15.808C161.897 15.296 161.225 15.04 160.585 15.04C160.329 15.04 160.009 15.104 159.625 15.232C159.913 15.36 160.057 15.584 160.057 15.904C160.057 16.096 159.993 16.32 159.865 16.576C159.129 17.984 158.553 19.52 158.137 21.184C157.721 22.816 157.513 24.464 157.513 26.128C157.513 28.048 157.801 29.872 158.377 31.6C158.761 32.56 159.161 33.312 159.577 33.856C159.769 34.08 159.961 34.24 160.153 34.336C161.081 33.696 161.913 32.8 162.649 31.648C163.417 30.496 164.057 29.296 164.569 28.048ZM163.897 11.2C165.465 11.52 166.809 12.208 167.929 13.264C169.049 14.32 169.897 15.6 170.473 17.104C171.049 18.576 171.337 20.112 171.337 21.712C171.337 23.6 170.969 25.536 170.233 27.52C169.497 29.504 168.489 31.328 167.209 32.992C165.929 34.656 164.505 35.968 162.937 36.928C161.465 37.824 160.025 38.272 158.617 38.272C157.209 38.272 155.977 37.84 154.921 36.976C153.865 36.112 153.097 34.864 152.617 33.232C152.073 31.568 151.801 29.696 151.801 27.616C151.801 26.368 151.897 25.152 152.089 23.968C151.865 24.032 151.529 24.064 151.081 24.064C149.993 24.064 149.449 23.696 149.449 22.96C149.449 22.704 149.481 22.496 149.545 22.336C150.633 19.296 152.265 16.656 154.441 14.416C156.649 12.144 159.177 11.008 162.025 11.008C162.441 11.008 163.065 11.072 163.897 11.2ZM187.348 12.496C187.38 11.856 187.828 11.296 188.692 10.816C189.588 10.304 190.484 10.048 191.38 10.048C191.892 10.048 192.308 10.16 192.628 10.384C192.948 10.576 193.092 10.896 193.06 11.344C192.996 12.56 192.964 13.536 192.964 14.272C192.804 18.432 192.516 21.968 192.1 24.88C191.716 27.792 190.836 30.528 189.46 33.088C188.084 35.648 186.036 37.328 183.316 38.128C182.388 38.384 181.508 38.512 180.676 38.512C178.628 38.512 176.82 37.904 175.252 36.688C173.716 35.472 172.836 33.824 172.612 31.744C172.548 30.912 172.516 30.288 172.516 29.872C172.516 27.664 172.852 25.408 173.524 23.104C174.196 20.8 175.172 18.016 176.452 14.752C176.836 13.888 177.268 12.784 177.748 11.44C177.94 10.896 178.42 10.448 179.188 10.096C179.988 9.712 180.772 9.52 181.54 9.52C182.052 9.52 182.468 9.632 182.788 9.856C183.108 10.048 183.268 10.336 183.268 10.72C183.268 10.848 183.236 11.04 183.172 11.296C182.532 13.152 182.036 14.544 181.684 15.472C180.756 18.064 180.036 20.24 179.524 22C179.012 23.728 178.66 25.504 178.468 27.328C178.404 28.096 178.372 28.704 178.372 29.152C178.372 31.04 178.836 32.4 179.764 33.232C180.052 33.52 180.436 33.792 180.916 34.048C181.396 34.272 181.844 34.4 182.26 34.432L182.644 34.528C182.676 34.528 182.74 34.48 182.836 34.384C183.636 33.872 184.276 33.008 184.756 31.792C185.268 30.544 185.604 29.44 185.764 28.48C185.924 27.52 186.148 26 186.436 23.92C186.66 22.224 186.836 20.368 186.964 18.352C187.124 16.336 187.252 14.384 187.348 12.496ZM212.795 10.912C212.027 16.736 211.643 22.224 211.643 27.376C211.643 29.872 211.739 32.4 211.931 34.96C211.995 35.152 212.027 35.312 212.027 35.44C212.027 35.536 211.995 35.68 211.931 35.872C211.931 35.904 211.915 35.92 211.883 35.92V36.016C211.691 36.56 211.243 37.04 210.539 37.456C209.835 37.84 209.083 38.064 208.283 38.128C207.003 38.256 206.235 37.92 205.979 37.12C204.859 34.112 203.083 29.952 200.651 24.64L200.075 23.296C199.819 27.296 199.659 31.568 199.595 36.112C199.595 36.784 199.147 37.392 198.251 37.936C197.355 38.448 196.443 38.704 195.515 38.704C194.939 38.704 194.475 38.592 194.123 38.368C193.771 38.144 193.611 37.776 193.643 37.264C193.835 28.56 194.459 20.32 195.515 12.544L195.563 12.352C195.499 11.648 195.931 11.008 196.859 10.432C197.787 9.856 198.715 9.568 199.643 9.568C200.603 9.568 201.195 9.888 201.419 10.528C202.443 13.312 203.963 16.896 205.979 21.28C206.171 18.272 206.507 15.216 206.987 12.112C207.083 11.472 207.595 10.912 208.523 10.432C209.451 9.92 210.363 9.664 211.259 9.664C212.411 9.664 212.923 10.08 212.795 10.912ZM220.143 30.016C223.503 27.424 226.143 24.672 228.063 21.76C225.503 20.992 222.927 19.44 220.335 17.104C220.271 20.016 220.207 24.32 220.143 30.016ZM234.015 19.12C234.239 19.28 234.351 19.488 234.351 19.744C234.351 19.968 234.287 20.192 234.159 20.416C232.463 23.68 230.223 26.576 227.439 29.104C224.655 31.632 221.279 34.16 217.311 36.688C216.927 36.912 216.495 37.12 216.015 37.312C215.535 37.472 215.071 37.552 214.623 37.552C214.143 37.552 213.727 37.424 213.375 37.168C212.991 36.88 212.799 36.528 212.799 36.112C212.799 35.568 213.103 35.088 213.711 34.672C213.775 34.64 213.839 34.592 213.903 34.528C213.967 34.464 214.063 34.4 214.191 34.336L214.383 22.432C214.447 19.84 214.511 15.888 214.575 10.576C214.543 10.512 214.527 10.4 214.527 10.24C214.527 10.176 214.559 10.016 214.623 9.76V9.232C214.655 8.624 215.071 8.112 215.871 7.696C216.671 7.248 217.519 7.024 218.415 7.024C219.023 7.024 219.503 7.136 219.855 7.36C220.239 7.584 220.431 7.936 220.431 8.416V8.896C224.303 14.24 228.527 17.504 233.103 18.688C233.583 18.848 233.887 18.992 234.015 19.12ZM242.505 23.728L242.121 24.688L245.481 27.52L245.145 26.128C244.921 25.232 244.473 23.328 243.801 20.416L242.505 23.728ZM247.977 9.712C248.425 12.496 248.985 15.328 249.657 18.208C250.361 21.056 251.209 24.336 252.201 28.048C253.129 31.568 253.737 33.904 254.025 35.056C254.057 35.152 254.073 35.296 254.073 35.488C254.073 36.256 253.641 36.928 252.777 37.504C251.913 38.048 251.017 38.32 250.089 38.32C249.321 38.32 248.729 38.112 248.313 37.696C247.385 36.704 246.409 35.76 245.385 34.864C244.361 33.968 243.017 32.864 241.353 31.552L239.769 30.256C238.425 33.136 237.385 35.264 236.649 36.64C236.425 37.12 235.833 37.568 234.873 37.984C233.945 38.368 233.081 38.56 232.281 38.56C231.385 38.56 230.937 38.272 230.937 37.696C230.937 37.536 230.985 37.344 231.081 37.12C232.041 34.752 233.177 32.032 234.489 28.96L235.497 26.512C234.697 25.712 234.297 25.312 234.297 25.312C234.073 25.088 233.961 24.832 233.961 24.544C233.961 24 234.313 23.488 235.017 23.008C235.721 22.496 236.505 22.16 237.369 22C238.905 18.32 240.345 14.576 241.689 10.768C241.817 10.32 242.217 9.936 242.889 9.616C243.593 9.264 244.329 9.04 245.097 8.944C245.641 8.784 246.105 8.704 246.489 8.704C247.385 8.704 247.881 9.04 247.977 9.712ZM267.755 9.712C268.427 9.648 268.939 9.728 269.291 9.952C269.675 10.176 270.075 10.608 270.491 11.248C270.747 11.664 270.875 12.016 270.875 12.304C270.875 13.008 270.427 13.424 269.531 13.552L267.851 13.744C266.283 13.968 265.451 14.08 265.355 14.08C264.811 19.2 264.379 23.648 264.059 27.424C263.739 31.2 263.531 34.928 263.435 38.608C263.403 39.056 263.211 39.392 262.859 39.616C262.539 39.84 262.107 39.952 261.563 39.952C260.603 39.952 259.643 39.696 258.683 39.184C257.755 38.64 257.307 38.032 257.339 37.36C257.435 33.968 257.627 30.512 257.915 26.992C258.203 23.44 258.587 19.328 259.067 14.656L256.043 15.04C255.595 15.072 255.243 15.056 254.987 14.992C254.763 14.896 254.539 14.704 254.315 14.416C254.091 14.128 253.867 13.808 253.643 13.456C253.387 13.104 253.259 12.752 253.259 12.4C253.259 12.112 253.371 11.856 253.595 11.632C253.819 11.408 254.155 11.264 254.603 11.2C255.307 11.104 256.123 10.992 257.051 10.864L259.499 10.528L260.363 2.224C260.459 1.328 261.115 0.879997 262.331 0.879997C263.291 0.879997 264.219 1.152 265.115 1.696C266.043 2.208 266.475 2.8 266.411 3.472L265.787 9.904C266.683 9.84 267.339 9.776 267.755 9.712ZM272.371 12.496C272.403 11.856 272.867 11.296 273.763 10.816C274.659 10.304 275.555 10.048 276.451 10.048C276.963 10.048 277.379 10.16 277.699 10.384C278.019 10.576 278.163 10.896 278.131 11.344L276.739 37.408C276.707 38.08 276.243 38.672 275.347 39.184C274.451 39.664 273.555 39.904 272.659 39.904C271.475 39.904 270.899 39.44 270.931 38.512L272.371 12.496ZM272.275 6.16C272.211 6.608 272.323 6.944 272.611 7.168C272.931 7.392 273.347 7.504 273.859 7.504C274.723 7.504 275.603 7.264 276.499 6.784C277.395 6.304 277.891 5.728 277.987 5.056C278.243 3.456 278.419 2.256 278.515 1.456C278.643 0.655997 278.147 0.255997 277.027 0.255997C276.163 0.255997 275.267 0.495997 274.339 0.975999C273.411 1.456 272.915 2 272.851 2.608L272.275 6.16ZM294.459 28.048C295.195 26.32 295.563 24.544 295.563 22.72C295.563 21.28 295.307 19.968 294.795 18.784C294.315 17.568 293.547 16.576 292.491 15.808C291.787 15.296 291.115 15.04 290.475 15.04C290.219 15.04 289.899 15.104 289.515 15.232C289.803 15.36 289.947 15.584 289.947 15.904C289.947 16.096 289.883 16.32 289.755 16.576C289.019 17.984 288.443 19.52 288.027 21.184C287.611 22.816 287.403 24.464 287.403 26.128C287.403 28.048 287.691 29.872 288.267 31.6C288.651 32.56 289.051 33.312 289.467 33.856C289.659 34.08 289.851 34.24 290.043 34.336C290.971 33.696 291.803 32.8 292.539 31.648C293.307 30.496 293.947 29.296 294.459 28.048ZM293.787 11.2C295.355 11.52 296.699 12.208 297.819 13.264C298.939 14.32 299.787 15.6 300.363 17.104C300.939 18.576 301.227 20.112 301.227 21.712C301.227 23.6 300.859 25.536 300.123 27.52C299.387 29.504 298.379 31.328 297.099 32.992C295.819 34.656 294.395 35.968 292.827 36.928C291.355 37.824 289.915 38.272 288.507 38.272C287.099 38.272 285.867 37.84 284.811 36.976C283.755 36.112 282.987 34.864 282.507 33.232C281.963 31.568 281.691 29.696 281.691 27.616C281.691 26.368 281.787 25.152 281.979 23.968C281.755 24.032 281.419 24.064 280.971 24.064C279.883 24.064 279.339 23.696 279.339 22.96C279.339 22.704 279.371 22.496 279.435 22.336C280.523 19.296 282.155 16.656 284.331 14.416C286.539 12.144 289.067 11.008 291.915 11.008C292.331 11.008 292.955 11.072 293.787 11.2ZM320.982 10.912C320.214 16.736 319.83 22.224 319.83 27.376C319.83 29.872 319.926 32.4 320.118 34.96C320.182 35.152 320.214 35.312 320.214 35.44C320.214 35.536 320.182 35.68 320.118 35.872C320.118 35.904 320.102 35.92 320.07 35.92V36.016C319.878 36.56 319.43 37.04 318.726 37.456C318.022 37.84 317.27 38.064 316.47 38.128C315.19 38.256 314.422 37.92 314.166 37.12C313.046 34.112 311.27 29.952 308.838 24.64L308.262 23.296C308.006 27.296 307.846 31.568 307.782 36.112C307.782 36.784 307.334 37.392 306.438 37.936C305.542 38.448 304.63 38.704 303.702 38.704C303.126 38.704 302.662 38.592 302.31 38.368C301.958 38.144 301.798 37.776 301.83 37.264C302.022 28.56 302.646 20.32 303.702 12.544L303.75 12.352C303.686 11.648 304.118 11.008 305.046 10.432C305.974 9.856 306.902 9.568 307.83 9.568C308.79 9.568 309.382 9.888 309.606 10.528C310.63 13.312 312.15 16.896 314.166 21.28C314.358 18.272 314.694 15.216 315.174 12.112C315.27 11.472 315.782 10.912 316.71 10.432C317.638 9.92 318.55 9.664 319.446 9.664C320.598 9.664 321.11 10.08 320.982 10.912Z"/></svg>